Coordinates
version=1
nRows=14
nColumns=36
inDegrees=yes

Units are S.I. units (second, meters, Newtons, ...)
If the header above contains a line with 'inDegrees', this indicates whether rotational values are in degrees (yes) or radians (no).

endheader
time	pelvis_tilt	pelvis_list	pelvis_rotation	pelvis_tx	pelvis_ty	pelvis_tz	hip_flexion_r	hip_adduction_r	hip_rotation_r	knee_angle_r	knee_angle_r_beta	ankle_angle_r	subtalar_angle_r	mtp_angle_r	hip_flexion_l	hip_adduction_l	hip_rotation_l	knee_angle_l	knee_angle_l_beta	ankle_angle_l	subtalar_angle_l	mtp_angle_l	lumbar_extension	lumbar_bending	lumbar_rotation	arm_flex_r	arm_add_r	arm_rot_r	elbow_flex_r	pro_sup_r	arm_flex_l	arm_add_l	arm_rot_l	elbow_flex_l	pro_sup_l
      1.25000000	     -0.03831865	     -1.89250477	      6.02233098	      0.01774454	      1.22765935	      0.09912090	     -1.02642304	     -0.55978038	      3.76225763	      0.36306862	      0.00633674	      2.71277331	     -7.24367357	     -7.49999987	     -2.29841723	     -0.75020490	     -6.84287010	      0.81787506	      0.01427461	      9.91282989	      2.49059697	     -7.49999987	     -8.20295655	     -0.46607492	      1.33956222	      0.90368630	     -4.63158666	      1.01085769	     23.17355986	     79.25660705	     -1.69823849	     -6.47366007	      9.46131396	     25.37545661	     74.17173312
      1.26666670	     -0.06808224	     -1.94168884	      6.10501743	      0.01866528	      1.22787498	      0.09868145	     -1.01439543	     -0.44886246	      3.78877670	      0.38575031	      0.00673261	      2.75086544	     -7.27281156	     -7.49999987	     -2.16022115	     -0.80589170	     -6.85690633	      0.81014599	      0.01413972	      9.92810687	      2.42518654	     -7.49999987	     -8.30204919	     -0.50533150	      1.34517138	      0.98198051	     -4.61668461	      1.02582247	     23.19341908	     79.27474252	     -1.62224233	     -6.55667301	      9.45543915	     25.38014361	     74.18628310
      1.28333330	     -0.09557403	     -1.97764744	      6.17335634	      0.01826254	      1.23115714	      0.09846153	     -1.00165630	     -0.35046591	      3.84275477	      0.39754833	      0.00693853	      2.74825619	     -7.28142573	     -7.49999987	     -2.02789877	     -0.86473477	     -6.88138274	      0.82884268	      0.01446603	      9.88084610	      2.37383146	     -7.49999987	     -8.43169189	     -0.53136992	      1.33245360	      0.96434686	     -4.62631870	      1.03255272	     23.18233528	     79.28659520	     -1.61647003	     -6.61471924	      9.45305989	     25.37810551	     74.19774408
      1.30000000	     -0.13798811	     -2.05524650	      6.26960721	      0.01886160	      1.23113567	      0.09812881	     -0.99643971	     -0.18951712	      4.08056662	      0.40141160	      0.00700595	      2.54970359	     -7.85543506	     -7.49999987	     -1.84262545	     -0.95973090	     -6.53419328	      0.92668307	      0.01617367	      9.51028966	      1.54507709	     -7.49999987	     -8.59691354	     -0.48843872	      1.23595362	      0.98646812	     -4.76466078	      1.63801539	     23.21621704	     80.60502482	     -1.81199737	     -6.81258322	      9.40562670	     25.73769944	     75.83304723
      1.31666670	     -0.20418289	     -2.06573318	      6.36152331	      0.01838692	      1.23139174	      0.09814669	     -0.98517197	     -0.12877622	      4.14565504	      0.42104743	      0.00734866	      2.40966138	     -8.22215292	     -7.49999987	     -1.66504829	     -0.98237355	     -6.53044887	      1.01848336	      0.01777589	      9.44128304	      1.40261169	     -7.49999987	     -8.75604554	     -0.52133516	      1.31232650	      0.78041924	     -4.70242684	      1.42558557	     23.29117436	     79.11362198	     -1.94427315	     -6.85347157	      9.02492207	     25.96721917	     74.81028475
      1.33333330	     -0.26044719	     -2.02693400	      6.42241585	      0.01966699	      1.23752492	      0.09760849	     -1.01691499	     -0.12331011	      4.20110881	      0.43548459	      0.00760064	      2.34542871	     -8.31660071	     -7.49999987	     -1.47184300	     -0.97715871	     -6.56026365	      1.10180220	      0.01923008	      9.31310969	      1.24866124	     -7.49999987	     -9.02761071	     -0.62279949	      1.44699026	      0.52581894	     -4.68074037	      1.35785704	     23.21719449	     78.47256795	     -2.03888737	     -6.92308516	      8.77875076	     26.17358959	     74.46497880
      1.35000000	     -0.24574779	     -1.93991613	      6.53898085	      0.02579041	      1.23740372	      0.09476152	     -1.21212243	     -0.20794484	      4.17282164	      0.43981009	      0.00767613	      2.32332533	     -8.32248729	     -7.49999987	     -1.43846918	     -0.90735210	     -6.64333709	      1.25876851	      0.02196966	      9.17487415	      1.21644029	     -7.49999987	     -9.18270558	     -0.66765279	      1.48228137	      0.08624121	     -4.71385951	      1.35780293	     23.05749181	     78.51133322	     -2.36961731	     -6.86185166	      8.79062953	     26.12524272	     74.50468290
      1.36666670	     -0.17820188	     -1.79912764	      6.63078786	      0.02655944	      1.23707014	      0.09453229	     -1.49730774	     -0.35785405	      4.10933683	      0.44457515	      0.00775930	      2.55361491	     -8.11920099	     -7.49999987	     -1.50481264	     -0.77531141	     -6.54626991	      1.44914297	      0.02529232	      9.06120438	      1.02508312	     -7.49999987	     -9.61532581	     -0.81889377	      1.69520533	     -0.59293653	     -4.72578819	      0.99875937	     23.21314161	     77.24407528	     -2.74318915	     -6.88113870	      8.41814906	     26.61806167	     73.56799809
      1.38333330	     -0.18112586	     -1.69164036	      6.72015843	      0.02597657	      1.23673756	      0.09484678	     -1.57415122	     -0.50502329	      4.03949518	      0.45772022	      0.00798872	      2.71142284	     -8.28470844	     -7.49999987	     -1.44998641	     -0.66045062	     -6.49668301	      1.64902456	      0.02878091	      9.10032556	      1.00030774	     -7.49999987	     -9.79844052	     -0.90794764	      1.69374107	     -1.25910843	     -4.79838882	      0.97006204	     22.87871992	     77.31239705	     -3.15132198	     -6.92799830	      8.38168626	     26.40601329	     73.62585911
      1.40000000	     -0.23210093	     -1.58053391	      6.73879287	      0.02034952	      1.23614060	      0.09774236	     -1.50381438	     -0.60962174	      4.16330185	      0.48939300	      0.00854152	      2.99785606	     -8.45059273	     -7.49999987	     -1.17004262	     -0.55478896	     -6.38530803	      2.08910485	      0.03646176	      9.18914911	      0.90193576	     -7.49999987	    -10.10292813	     -1.07562321	      1.72819903	     -1.74814220	     -4.86266027	      0.90989188	     22.51592611	     77.40030763	     -3.28477844	     -7.13604962	      8.25707524	     26.13986920	     73.69166429
      1.41666670	     -0.45446019	     -1.52862499	      6.80664283	      0.01984810	      1.23560669	      0.09794584	     -1.13343988	     -0.66746409	      4.44481014	      0.58661209	      0.01023831	      2.86400407	     -9.21783982	     -7.49999987	     -0.55784408	     -0.51361881	     -6.22907548	      2.73427739	      0.04772214	      9.47295020	      0.63024336	     -7.49999987	    -10.19296206	     -1.17120612	      1.97809852	     -2.15613880	     -4.55942549	     -2.41814119	     21.73745809	     84.21028275	     -3.04093265	     -6.85509529	      5.51482125	     24.96002520	     80.29332158
      1.43333330	     -0.62204483	     -1.39079017	      6.93904249	      0.02115534	      1.23818243	      0.09745476	     -0.88813174	     -0.79681948	      4.53310540	      0.64104630	      0.01118837	      2.82754730	     -9.63949683	     -7.49999987	      0.05659373	     -0.40851093	     -6.03691604	      3.40948221	      0.05950669	      9.73777783	      0.50020522	     -7.49999987	    -10.52858325	     -1.39539598	      2.04188821	     -2.45281894	     -4.81178077	     -0.17384453	     21.39940876	     79.25841008	     -3.00984065	     -7.16083055	      7.07868616	     24.23378807	     75.63417043
      1.45000000	     -0.57937062	     -1.24896572	      7.17590536	      0.02727830	      1.24083228	      0.09435442	     -0.90194743	     -0.98198931	      4.19479912	      0.77431159	      0.01351429	      2.88201993	     -9.57354735	     -7.49999987	      0.40987162	     -0.32108817	     -5.88444779	      4.17123746	      0.07280183	     10.01078860	      0.58374144	     -7.49999987	    -11.01451717	     -1.56942050	      2.14466475	     -3.00088244	     -4.81979326	     -0.43539889	     21.07798251	     79.42173275	     -3.29242219	     -7.12825443	      6.75858698	     24.00839978	     75.75879699
      1.46666670	     -0.61755575	     -1.10852553	      7.23496286	      0.02814875	      1.23097920	      0.09472701	     -0.76957130	     -1.17036997	      4.22640892	      1.03660097	      0.01809210	      3.19055726	     -9.83286743	     -7.49999987	      0.88363203	     -0.17057591	     -5.76595960	      5.01398916	      0.08751062	     10.65137120	      0.61886173	     -7.49999987	    -11.43147027	     -1.79160106	      2.11695911	     -3.69993424	     -4.43482925	     -3.63952503	     21.19795276	     84.74252735	     -4.13913954	     -6.75250938	      2.75345122	     24.53230545	     80.56285436
